<svg xmlns="http://www.w3.org/2000/svg" viewBox="0 0 360 540" width="360" height="540"><defs><linearGradient id="b" x1="0" y1="0" x2="0.5" y2="1"><stop offset="0" stop-color="#2a3a63"/><stop offset="1" stop-color="#141b30"/></linearGradient><pattern id="lat" width="22" height="22" patternUnits="userSpaceOnUse" patternTransform="rotate(45)"><path d="M0 0 H22 M0 11 H22" stroke="#d4af37" stroke-width="1.6" opacity=".30"/><path d="M0 0 V22 M11 0 V22" stroke="#d4af37" stroke-width="1.6" opacity=".30"/></pattern></defs><rect x="1.5" y="1.5" width="357" height="537" rx="25.919999999999998" fill="url(#b)" stroke="#3a4a76" stroke-width="3"/><rect x="20.16" y="20.16" width="319.68" height="499.68" rx="17.28" fill="url(#lat)"/><rect x="20.16" y="20.16" width="319.68" height="499.68" rx="17.28" fill="none" stroke="#d4af37" stroke-width="2.5" opacity=".65"/><circle cx="180" cy="270" r="60.48" fill="#141b30" stroke="#d4af37" stroke-width="2.5" opacity=".9"/><g transform="translate(146.88 236.88) scale(0.6624)"><path d="M50 6 C50 6 10 36 10 58 C10 71 20 79 32 79 C39 79 45 75 50 69 C55 75 61 79 68 79 C80 79 90 71 90 58 C90 36 50 6 50 6 Z" fill="#d4af37"/><path d="M50 64 C50 77 46 85 35 93 L65 93 C54 85 50 77 50 64 Z" fill="#d4af37"/></g></svg>